<svg width="128" height="128" viewBox="0 0 128 128" fill="none" xmlns="http://www.w3.org/2000/svg">
  <defs>
    <linearGradient id="bg1" x1="16" y1="12" x2="112" y2="116" gradientUnits="userSpaceOnUse">
      <stop stop-color="#1B1B1B"/>
      <stop offset="1" stop-color="#070707"/>
    </linearGradient>
    <radialGradient id="skin1" cx="0" cy="0" r="1" gradientUnits="userSpaceOnUse" gradientTransform="translate(64 62) rotate(90) scale(34)">
      <stop stop-color="#F0D1BF"/>
      <stop offset="1" stop-color="#C99882"/>
    </radialGradient>
  </defs>
  <rect width="128" height="128" rx="28" fill="url(#bg1)"/>
  <circle cx="64" cy="64" r="44" fill="#101010" stroke="#2C2C2C" stroke-width="2"/>
  <ellipse cx="64" cy="64" rx="31" ry="35" fill="url(#skin1)"/>
  <path d="M34 50C38 28 50 18 64 18C78 18 90 28 94 50C84 43 75 39 64 39C53 39 44 43 34 50Z" fill="#D8D8D8"/>
  <path d="M40 56L52 48H76L88 56L82 83L64 94L46 83L40 56Z" fill="#111111" stroke="#F4F4F4" stroke-width="2.8"/>
  <path d="M48 61H59L56 68H46L48 61Z" fill="#F5F5F5"/>
  <path d="M69 61H80L82 68H72L69 61Z" fill="#F5F5F5"/>
  <path d="M55 77C60 80 68 80 73 77" stroke="#F3F3F3" stroke-width="3" stroke-linecap="round"/>
  <path d="M44 100C49 91 56 87 64 87C72 87 79 91 84 100" stroke="#7DE2D1" stroke-width="3" stroke-linecap="round"/>
</svg>
